<svg width="15" height="14" viewBox="0 0 15 14" fill="none" xmlns="http://www.w3.org/2000/svg">
<path d="M14.5851 3.22308C14.3616 2.70977 14.0395 2.24461 13.6366 1.85365C13.2335 1.46152 12.7581 1.1499 12.2365 0.93573C11.6955 0.712772 11.1153 0.59865 10.5296 0.599987C9.70783 0.599987 8.90607 0.823264 8.20933 1.24501C8.04264 1.3459 7.88429 1.45671 7.73427 1.57745C7.58426 1.45671 7.4259 1.3459 7.25922 1.24501C6.56247 0.823264 5.76071 0.599987 4.93895 0.599987C4.34722 0.599987 3.77382 0.712453 3.23209 0.93573C2.7087 1.15074 2.23698 1.46002 1.83193 1.85365C1.42854 2.24417 1.10631 2.70944 0.883487 3.22308C0.651794 3.75729 0.533447 4.32458 0.533447 4.90841C0.533447 5.45916 0.646794 6.03307 0.871819 6.6169C1.06017 7.1048 1.33021 7.61089 1.67524 8.12195C2.22197 8.93071 2.97373 9.7742 3.90717 10.6293C5.45401 12.0467 6.98585 13.0258 7.05086 13.0655L7.44591 13.3169C7.62093 13.4277 7.84595 13.4277 8.02097 13.3169L8.41602 13.0655C8.48103 13.0241 10.0112 12.0467 11.5597 10.6293C12.4932 9.7742 13.2449 8.93071 13.7916 8.12195C14.1367 7.61089 14.4084 7.1048 14.5951 6.6169C14.8201 6.03307 14.9334 5.45916 14.9334 4.90841C14.9351 4.32458 14.8168 3.75729 14.5851 3.22308Z" fill="#FF8585"/>
</svg>
