<svg width="15" height="14" viewBox="0 0 15 14" fill="none" xmlns="http://www.w3.org/2000/svg">
<path d="M13.1491 2.35598L13.1486 2.35544C12.8097 2.02581 12.4098 1.76359 11.9706 1.58328L11.9697 1.58291C11.514 1.39507 11.025 1.29886 10.5312 1.29999L10.5296 1.29999C9.83476 1.29999 9.15849 1.48873 8.57181 1.84385L8.57179 1.84386C8.43142 1.92882 8.29863 2.02179 8.17315 2.12277L7.73427 2.47599L7.29539 2.12277C7.16991 2.02179 7.03712 1.92882 6.89676 1.84386L6.89674 1.84385C6.31005 1.48873 5.63378 1.29999 4.93895 1.29999C4.43741 1.29999 3.95474 1.39501 3.49883 1.58292L3.49808 1.58323C3.05711 1.76437 2.66073 2.02431 2.31978 2.35565L2.31882 2.35658L2.31882 2.35657C1.98124 2.6834 1.71186 3.07247 1.52569 3.50161L13.1491 2.35598ZM13.1491 2.35598C13.4866 2.68348 13.7562 3.07283 13.9431 3.50209C14.1366 3.94861 14.2348 4.42031 14.2334 4.90641V4.90841C14.2334 5.36255 14.14 5.85119 13.9419 6.36514L13.9413 6.36674M13.1491 2.35598L13.9413 6.36674M4.38 10.1131L4.38008 10.1132C5.12919 10.7996 5.87741 11.3822 6.4476 11.7988C6.73216 12.0066 6.97099 12.1721 7.14161 12.2873C7.2269 12.345 7.29495 12.3899 7.34291 12.4212C7.39371 12.4543 7.41717 12.469 7.41566 12.468L7.42674 12.4748L7.42667 12.4749L7.73344 12.6701L8.0402 12.4749L8.04034 12.4748C8.09153 12.4423 9.58235 11.4902 11.0869 10.1131H4.38ZM4.38 10.1131C3.4754 9.28445 2.76348 8.48184 2.25517 7.72992M4.38 10.1131L2.25517 7.72992M13.9413 6.36674C13.7773 6.7954 13.5329 7.25421 13.2115 7.73026M13.9413 6.36674L13.2115 7.73026M2.25517 7.72992C1.93479 7.25534 1.69136 6.79603 1.52498 6.36515L2.25517 7.72992ZM13.2115 7.73026C12.7032 8.48203 11.9914 9.28446 11.0871 10.1129L13.2115 7.73026ZM1.23345 4.90841C1.23345 4.4208 1.33196 3.9483 1.52567 3.50166L1.52485 6.36479C1.32684 5.85096 1.23345 5.36244 1.23345 4.90841Z" stroke="#ECECEC" stroke-width="1.4"/>
</svg>
